<svg width="88" height="67" viewBox="0 0 88 67" fill="none" xmlns="http://www.w3.org/2000/svg">
<g clip-path="url(#clip0_67_6)">
<path d="M54.1486 9.98597L85.2176 54.0292C88.7317 59.0108 85.1497 65.8812 79.0535 65.8524L16.9563 65.5586C10.8838 65.5299 7.36117 58.6732 10.8742 53.7199L41.9024 9.97045C44.8964 5.74891 51.1653 5.75685 54.1486 9.98597Z" stroke="#F4F4F4"/>
<path d="M46.5867 4.98597L77.6556 49.0292C81.1697 54.0108 77.5878 60.8812 71.4916 60.8524L9.39434 60.5586C3.32183 60.5299 -0.200777 53.6732 3.31222 48.7199L34.3404 4.97045C37.3345 0.748907 43.6033 0.756847 46.5867 4.98597Z" fill="black" stroke="#F4F4F4"/>
<path d="M29.778 33.1416C30.2181 33.1416 30.6498 33.1924 31.073 33.2939C31.5046 33.3955 31.9151 33.5479 32.3044 33.751C32.6937 33.9456 33.0365 34.208 33.3327 34.5381C33.6374 34.8682 33.8025 35.2617 33.8278 35.7188V36.252V40.3018C33.7771 40.8096 33.4978 41.0846 32.99 41.127C32.753 41.127 32.5456 41.0508 32.3679 40.8984C32.1986 40.7376 32.114 40.5387 32.114 40.3018V36.1123C32.0971 35.8499 31.9955 35.6341 31.8093 35.4648C31.6316 35.2871 31.4284 35.1475 31.1999 35.0459C30.9799 34.9443 30.7471 34.8682 30.5017 34.8174C30.2647 34.7666 30.0235 34.7412 29.778 34.7412C29.5326 34.7412 29.2872 34.7666 29.0417 34.8174C28.8047 34.8682 28.572 34.9443 28.3435 35.0459C28.1234 35.1475 27.9203 35.2871 27.7341 35.4648C27.5564 35.6341 27.459 35.8499 27.4421 36.1123V40.3018C27.3998 40.8096 27.1247 41.0846 26.6169 41.127C26.3799 41.127 26.1726 41.0508 25.9948 40.8984C25.8256 40.7376 25.7409 40.5387 25.7409 40.3018V36.252V35.7188C25.7663 35.2617 25.9271 34.8682 26.2234 34.5381C26.5196 34.208 26.8624 33.9456 27.2517 33.751C27.641 33.5479 28.0473 33.3955 28.4704 33.2939C28.9021 33.1924 29.3379 33.1416 29.778 33.1416ZM35.9409 40.124C35.9409 39.887 36.0213 39.6882 36.1821 39.5273C36.3513 39.3581 36.5545 39.2734 36.7914 39.2734H39.2289V35.1855H36.7914C36.5545 35.1855 36.3556 35.1009 36.1948 34.9316C36.0255 34.7708 35.9409 34.5719 35.9409 34.335C35.9409 34.098 36.0213 33.8991 36.1821 33.7383C36.3513 33.569 36.5545 33.4844 36.7914 33.4844H43.3676C43.6046 33.4844 43.8077 33.5648 43.977 33.7256C44.1378 33.8949 44.2182 34.098 44.2182 34.335C44.2182 34.5719 44.1336 34.7751 43.9643 34.9443C43.8035 35.1051 43.6046 35.1855 43.3676 35.1855H40.9428V39.2734H43.3676C43.6046 39.2734 43.8077 39.3538 43.977 39.5146C44.1378 39.6839 44.2182 39.887 44.2182 40.124C44.2182 40.361 44.1336 40.5641 43.9643 40.7334C43.8035 40.8942 43.6046 40.9746 43.3676 40.9746H36.7914C36.5545 40.9746 36.3556 40.89 36.1948 40.7207C36.0255 40.5599 35.9409 40.361 35.9409 40.124ZM49.8224 37.0518C49.5939 36.6201 49.3061 36.2096 48.9591 35.8203C48.6121 35.431 48.2778 35.2194 47.9562 35.1855H46.8898C46.6528 35.1855 46.4539 35.1009 46.2931 34.9316C46.1239 34.7708 46.0392 34.5719 46.0392 34.335C46.0392 34.098 46.1196 33.8991 46.2804 33.7383C46.4497 33.569 46.6528 33.4844 46.8898 33.4844H47.9562V33.4971H48.0832C48.6925 33.5309 49.3231 33.8737 49.9748 34.5254C50.2964 34.8555 50.5926 35.2279 50.8634 35.6426C51.1343 35.2279 51.4347 34.8555 51.7648 34.5254C52.408 33.8737 53.0343 33.5309 53.6437 33.4971H53.7707V33.4844H54.8371C55.074 33.4844 55.2729 33.569 55.4337 33.7383C55.603 33.8991 55.6877 34.098 55.6877 34.335C55.6877 34.5719 55.603 34.7708 55.4337 34.9316C55.2729 35.1009 55.074 35.1855 54.8371 35.1855H53.7707C53.449 35.2194 53.1147 35.431 52.7677 35.8203C52.4207 36.2096 52.133 36.6201 51.9044 37.0518C51.8537 37.1449 51.8029 37.2337 51.7521 37.3184C51.769 37.3438 51.786 37.3691 51.8029 37.3945C52.0314 37.8346 52.3192 38.2493 52.6662 38.6387C53.0132 39.028 53.3475 39.2354 53.6691 39.2607H54.7355C54.9725 39.2607 55.1714 39.3454 55.3322 39.5146C55.5015 39.6755 55.5861 39.8743 55.5861 40.1113C55.5861 40.3483 55.5015 40.5514 55.3322 40.7207C55.1714 40.8815 54.9725 40.9619 54.7355 40.9619H53.5421C52.9328 40.9281 52.3065 40.5895 51.6632 39.9463C51.3755 39.6501 51.1089 39.3285 50.8634 38.9814C50.618 39.3285 50.3514 39.6501 50.0636 39.9463C49.4204 40.5895 48.7941 40.9281 48.1847 40.9619H46.9914C46.7544 40.9619 46.5513 40.8815 46.382 40.7207C46.2212 40.5514 46.1408 40.3483 46.1408 40.1113C46.1408 39.8743 46.2254 39.6755 46.3947 39.5146C46.5555 39.3454 46.7544 39.2607 46.9914 39.2607H48.0578C48.3794 39.2354 48.7137 39.028 49.0607 38.6387C49.4077 38.2493 49.6955 37.8346 49.924 37.3945C49.9409 37.3691 49.9578 37.3438 49.9748 37.3184C49.924 37.2337 49.8732 37.1449 49.8224 37.0518Z" fill="#F4F4F4"/>
</g>
<defs>
<clipPath id="clip0_67_6">
<rect width="88" height="67" fill="white"/>
</clipPath>
</defs>
</svg>
